<svg id="Layer_2" data-name="Layer 2" xmlns="http://www.w3.org/2000/svg" width="126.971" height="47.369" viewBox="0 0 126.971 47.369">
  <g id="Layer_1" data-name="Layer 1">
    <rect id="Rectángulo_2310" data-name="Rectángulo 2310" width="13.236" height="1.597" transform="translate(6.582)" fill="#fff"/>
    <rect id="Rectángulo_2311" data-name="Rectángulo 2311" width="13.236" height="1.597" transform="translate(6.582 2.635)" fill="#fff"/>
    <rect id="Rectángulo_2312" data-name="Rectángulo 2312" width="26.401" height="1.597" transform="translate(0 21.296)" fill="#fff"/>
    <rect id="Rectángulo_2313" data-name="Rectángulo 2313" width="6.806" height="1.597" transform="translate(0 31.948)" fill="#fff"/>
    <rect id="Rectángulo_2314" data-name="Rectángulo 2314" width="6.806" height="1.597" transform="translate(0 34.609)" fill="#fff"/>
    <rect id="Rectángulo_2315" data-name="Rectángulo 2315" width="26.401" height="1.597" transform="translate(0 23.96)" fill="#fff"/>
    <rect id="Rectángulo_2316" data-name="Rectángulo 2316" width="6.806" height="1.597" transform="translate(0 10.648)" fill="#fff"/>
    <rect id="Rectángulo_2317" data-name="Rectángulo 2317" width="6.806" height="1.597" transform="translate(0 13.312)" fill="#fff"/>
    <rect id="Rectángulo_2318" data-name="Rectángulo 2318" width="6.806" height="1.597" transform="translate(0 15.972)" fill="#fff"/>
    <rect id="Rectángulo_2319" data-name="Rectángulo 2319" width="6.806" height="1.597" transform="translate(0 18.636)" fill="#fff"/>
    <rect id="Rectángulo_2320" data-name="Rectángulo 2320" width="6.806" height="1.597" transform="translate(0 26.621)" fill="#fff"/>
    <rect id="Rectángulo_2321" data-name="Rectángulo 2321" width="6.806" height="1.597" transform="translate(0 29.284)" fill="#fff"/>
    <rect id="Rectángulo_2322" data-name="Rectángulo 2322" width="6.806" height="1.597" transform="translate(19.591 31.948)" fill="#fff"/>
    <rect id="Rectángulo_2323" data-name="Rectángulo 2323" width="6.806" height="1.597" transform="translate(19.591 34.609)" fill="#fff"/>
    <rect id="Rectángulo_2324" data-name="Rectángulo 2324" width="6.806" height="1.597" transform="translate(0 7.988)" fill="#fff"/>
    <rect id="Rectángulo_2325" data-name="Rectángulo 2325" width="6.806" height="1.597" transform="translate(19.591 7.988)" fill="#fff"/>
    <rect id="Rectángulo_2326" data-name="Rectángulo 2326" width="6.806" height="1.597" transform="translate(17.995 5.324)" fill="#fff"/>
    <rect id="Rectángulo_2327" data-name="Rectángulo 2327" width="6.806" height="1.597" transform="translate(1.597 5.324)" fill="#fff"/>
    <rect id="Rectángulo_2328" data-name="Rectángulo 2328" width="6.806" height="1.597" transform="translate(19.591 10.648)" fill="#fff"/>
    <rect id="Rectángulo_2329" data-name="Rectángulo 2329" width="6.806" height="1.597" transform="translate(19.591 13.312)" fill="#fff"/>
    <rect id="Rectángulo_2330" data-name="Rectángulo 2330" width="6.806" height="1.597" transform="translate(19.591 15.972)" fill="#fff"/>
    <rect id="Rectángulo_2331" data-name="Rectángulo 2331" width="6.806" height="1.597" transform="translate(19.591 18.636)" fill="#fff"/>
    <rect id="Rectángulo_2332" data-name="Rectángulo 2332" width="6.806" height="1.597" transform="translate(19.591 26.621)" fill="#fff"/>
    <rect id="Rectángulo_2333" data-name="Rectángulo 2333" width="6.806" height="1.597" transform="translate(19.591 29.284)" fill="#fff"/>
    <rect id="Rectángulo_2334" data-name="Rectángulo 2334" width="13.236" height="1.597" transform="translate(107.153)" fill="#fff"/>
    <rect id="Rectángulo_2335" data-name="Rectángulo 2335" width="13.236" height="1.597" transform="translate(107.153 2.635)" fill="#fff"/>
    <rect id="Rectángulo_2336" data-name="Rectángulo 2336" width="26.401" height="1.597" transform="translate(100.571 21.296)" fill="#fff"/>
    <rect id="Rectángulo_2337" data-name="Rectángulo 2337" width="6.806" height="1.597" transform="translate(100.571 31.948)" fill="#fff"/>
    <rect id="Rectángulo_2338" data-name="Rectángulo 2338" width="6.806" height="1.597" transform="translate(100.571 34.609)" fill="#fff"/>
    <rect id="Rectángulo_2339" data-name="Rectángulo 2339" width="26.401" height="1.597" transform="translate(100.571 23.96)" fill="#fff"/>
    <rect id="Rectángulo_2340" data-name="Rectángulo 2340" width="6.806" height="1.597" transform="translate(100.571 10.648)" fill="#fff"/>
    <rect id="Rectángulo_2341" data-name="Rectángulo 2341" width="6.806" height="1.597" transform="translate(100.571 13.312)" fill="#fff"/>
    <rect id="Rectángulo_2342" data-name="Rectángulo 2342" width="6.806" height="1.597" transform="translate(100.571 15.972)" fill="#fff"/>
    <rect id="Rectángulo_2343" data-name="Rectángulo 2343" width="6.806" height="1.597" transform="translate(100.571 18.636)" fill="#fff"/>
    <rect id="Rectángulo_2344" data-name="Rectángulo 2344" width="6.806" height="1.597" transform="translate(100.571 26.621)" fill="#fff"/>
    <rect id="Rectángulo_2345" data-name="Rectángulo 2345" width="6.806" height="1.597" transform="translate(100.571 29.284)" fill="#fff"/>
    <rect id="Rectángulo_2346" data-name="Rectángulo 2346" width="6.806" height="1.597" transform="translate(120.166 31.948)" fill="#fff"/>
    <rect id="Rectángulo_2347" data-name="Rectángulo 2347" width="6.806" height="1.597" transform="translate(120.166 34.609)" fill="#fff"/>
    <rect id="Rectángulo_2348" data-name="Rectángulo 2348" width="6.806" height="1.597" transform="translate(100.571 7.988)" fill="#fff"/>
    <rect id="Rectángulo_2349" data-name="Rectángulo 2349" width="6.806" height="1.597" transform="translate(120.166 7.988)" fill="#fff"/>
    <rect id="Rectángulo_2350" data-name="Rectángulo 2350" width="6.806" height="1.597" transform="translate(118.569 5.324)" fill="#fff"/>
    <rect id="Rectángulo_2351" data-name="Rectángulo 2351" width="6.806" height="1.597" transform="translate(102.167 5.324)" fill="#fff"/>
    <rect id="Rectángulo_2352" data-name="Rectángulo 2352" width="6.806" height="1.597" transform="translate(120.166 10.648)" fill="#fff"/>
    <rect id="Rectángulo_2353" data-name="Rectángulo 2353" width="6.806" height="1.597" transform="translate(120.166 13.312)" fill="#fff"/>
    <rect id="Rectángulo_2354" data-name="Rectángulo 2354" width="6.806" height="1.597" transform="translate(120.166 15.972)" fill="#fff"/>
    <rect id="Rectángulo_2355" data-name="Rectángulo 2355" width="6.806" height="1.597" transform="translate(120.166 18.636)" fill="#fff"/>
    <rect id="Rectángulo_2356" data-name="Rectángulo 2356" width="6.806" height="1.597" transform="translate(120.166 26.621)" fill="#fff"/>
    <rect id="Rectángulo_2357" data-name="Rectángulo 2357" width="6.806" height="1.597" transform="translate(120.166 29.284)" fill="#fff"/>
    <rect id="Rectángulo_2358" data-name="Rectángulo 2358" width="6.806" height="1.597" transform="translate(32.702 21.296)" fill="#fff"/>
    <rect id="Rectángulo_2359" data-name="Rectángulo 2359" width="6.806" height="1.597" transform="translate(32.702 23.96)" fill="#fff"/>
    <rect id="Rectángulo_2360" data-name="Rectángulo 2360" width="19.595" height="1.597" transform="translate(39.504 31.948)" fill="#fff"/>
    <rect id="Rectángulo_2361" data-name="Rectángulo 2361" width="19.595" height="1.597" transform="translate(39.504 34.609)" fill="#fff"/>
    <rect id="Rectángulo_2362" data-name="Rectángulo 2362" width="19.595" height="1.597" transform="translate(39.504)" fill="#fff"/>
    <rect id="Rectángulo_2363" data-name="Rectángulo 2363" width="19.595" height="1.597" transform="translate(39.504 2.664)" fill="#fff"/>
    <rect id="Rectángulo_2364" data-name="Rectángulo 2364" width="6.806" height="1.597" transform="translate(32.702 7.988)" fill="#fff"/>
    <rect id="Rectángulo_2365" data-name="Rectángulo 2365" width="6.806" height="1.597" transform="translate(32.702 5.324)" fill="#fff"/>
    <rect id="Rectángulo_2366" data-name="Rectángulo 2366" width="6.806" height="1.597" transform="translate(32.702 10.648)" fill="#fff"/>
    <rect id="Rectángulo_2367" data-name="Rectángulo 2367" width="6.806" height="1.597" transform="translate(32.702 13.312)" fill="#fff"/>
    <rect id="Rectángulo_2368" data-name="Rectángulo 2368" width="19.602" height="1.597" transform="translate(39.5 15.965)" fill="#fff"/>
    <rect id="Rectángulo_2369" data-name="Rectángulo 2369" width="19.602" height="1.597" transform="translate(39.5 18.625)" fill="#fff"/>
    <rect id="Rectángulo_2370" data-name="Rectángulo 2370" width="6.806" height="1.597" transform="translate(32.702 26.621)" fill="#fff"/>
    <rect id="Rectángulo_2371" data-name="Rectángulo 2371" width="6.806" height="1.597" transform="translate(32.702 29.284)" fill="#fff"/>
    <rect id="Rectángulo_2372" data-name="Rectángulo 2372" width="13.236" height="1.597" transform="translate(72.083)" fill="#fff"/>
    <rect id="Rectángulo_2373" data-name="Rectángulo 2373" width="6.806" height="1.597" transform="translate(65.281 21.296)" fill="#fff"/>
    <rect id="Rectángulo_2374" data-name="Rectángulo 2374" width="6.806" height="1.597" transform="translate(65.281 23.96)" fill="#fff"/>
    <rect id="Rectángulo_2375" data-name="Rectángulo 2375" width="19.209" height="1.597" transform="translate(72.083 2.664)" fill="#fff"/>
    <rect id="Rectángulo_2376" data-name="Rectángulo 2376" width="6.806" height="1.597" transform="translate(65.281 7.988)" fill="#fff"/>
    <rect id="Rectángulo_2377" data-name="Rectángulo 2377" width="6.806" height="1.597" transform="translate(65.281 5.324)" fill="#fff"/>
    <rect id="Rectángulo_2378" data-name="Rectángulo 2378" width="6.806" height="1.597" transform="translate(65.281 10.648)" fill="#fff"/>
    <rect id="Rectángulo_2379" data-name="Rectángulo 2379" width="6.806" height="1.597" transform="translate(65.281 13.312)" fill="#fff"/>
    <rect id="Rectángulo_2380" data-name="Rectángulo 2380" width="6.806" height="1.597" transform="translate(87.251 7.988)" fill="#fff"/>
    <rect id="Rectángulo_2381" data-name="Rectángulo 2381" width="6.806" height="1.597" transform="translate(87.251 5.324)" fill="#fff"/>
    <rect id="Rectángulo_2382" data-name="Rectángulo 2382" width="6.806" height="1.597" transform="translate(87.251 10.648)" fill="#fff"/>
    <rect id="Rectángulo_2383" data-name="Rectángulo 2383" width="6.806" height="1.597" transform="translate(87.251 13.312)" fill="#fff"/>
    <rect id="Rectángulo_2384" data-name="Rectángulo 2384" width="28.776" height="1.597" transform="translate(65.281 15.965)" fill="#fff"/>
    <rect id="Rectángulo_2385" data-name="Rectángulo 2385" width="26.015" height="1.597" transform="translate(65.281 18.625)" fill="#fff"/>
    <rect id="Rectángulo_2386" data-name="Rectángulo 2386" width="6.806" height="1.597" transform="translate(65.281 26.621)" fill="#fff"/>
    <rect id="Rectángulo_2387" data-name="Rectángulo 2387" width="6.806" height="1.597" transform="translate(65.281 29.284)" fill="#fff"/>
    <rect id="Rectángulo_2388" data-name="Rectángulo 2388" width="6.806" height="1.597" transform="translate(65.281 31.948)" fill="#fff"/>
    <rect id="Rectángulo_2389" data-name="Rectángulo 2389" width="6.806" height="1.597" transform="translate(65.281 34.609)" fill="#fff"/>
    <rect id="Rectángulo_2390" data-name="Rectángulo 2390" width="6.806" height="1.597" transform="translate(84.454 21.296)" fill="#fff"/>
    <rect id="Rectángulo_2391" data-name="Rectángulo 2391" width="6.806" height="1.597" transform="translate(87.251 23.96)" fill="#fff"/>
    <rect id="Rectángulo_2392" data-name="Rectángulo 2392" width="6.806" height="1.597" transform="translate(87.251 26.621)" fill="#fff"/>
    <rect id="Rectángulo_2393" data-name="Rectángulo 2393" width="6.806" height="1.597" transform="translate(87.251 29.284)" fill="#fff"/>
    <rect id="Rectángulo_2394" data-name="Rectángulo 2394" width="6.806" height="1.597" transform="translate(87.251 31.948)" fill="#fff"/>
    <rect id="Rectángulo_2395" data-name="Rectángulo 2395" width="6.806" height="1.597" transform="translate(87.251 34.609)" fill="#fff"/>
    <path id="Trazado_1432" data-name="Trazado 1432" d="M83.16,125.392v-3.3H84.3a1.655,1.655,0,0,1,.054,3.3Zm.519-.5h.642c.57,0,1.017-.292,1.017-1.168s-.458-1.125-1.031-1.125h-.627Z" transform="translate(-53.183 -78.08)" fill="#fff"/>
    <path id="Trazado_1433" data-name="Trazado 1433" d="M94.47,122.09h.515v3.3H94.47Z" transform="translate(-60.417 -78.08)" fill="#fff"/>
    <path id="Trazado_1434" data-name="Trazado 1434" d="M99.55,124.236h.591a.7.7,0,0,0,.779.631c.418,0,.721-.126.721-.447,0-.84-1.95-.213-1.95-1.59,0-.415.321-.89,1.19-.89.779,0,1.226.393,1.269.988h-.6a.577.577,0,0,0-.652-.508c-.422,0-.66.173-.66.436,0,.768,1.939.173,1.939,1.507,0,.58-.519.988-1.229.988C100.145,125.354,99.59,125,99.55,124.236Z" transform="translate(-63.665 -77.985)" fill="#fff"/>
    <path id="Trazado_1435" data-name="Trazado 1435" d="M110.744,122.595H109.72v-.5H112.3v.5h-1.035v2.8h-.526Z" transform="translate(-70.169 -78.08)" fill="#fff"/>
    <path id="Trazado_1436" data-name="Trazado 1436" d="M121.763,123.824a.771.771,0,0,1,.674.6c.166.443.4.991.4.991h-.6s-.3-.8-.422-1.081-.4-.324-.721-.324h-.537v1.42h-.519v-3.3h1.442c.84,0,1.179.332,1.179.876A.872.872,0,0,1,121.763,123.824Zm-1.2-.3h.818c.544,0,.721-.119.721-.447s-.155-.454-.616-.454h-.923Z" transform="translate(-76.769 -78.106)" fill="#fff"/>
    <path id="Trazado_1437" data-name="Trazado 1437" d="M131.08,122.09h.515v3.3h-.515Z" transform="translate(-83.83 -78.08)" fill="#fff"/>
    <path id="Trazado_1438" data-name="Trazado 1438" d="M136.894,122.595H135.87v-.5h2.57v.5h-1.031v2.8h-.526Z" transform="translate(-86.893 -78.08)" fill="#fff"/>
    <path id="Trazado_1439" data-name="Trazado 1439" d="M148.978,123.652a1.584,1.584,0,1,1-1.582-1.712A1.567,1.567,0,0,1,148.978,123.652Zm-.559,0c0-.75-.4-1.208-1.024-1.208s-1.013.458-1.024,1.208.4,1.2,1.024,1.211,1.013-.465,1.013-1.218Z" transform="translate(-93.257 -77.985)" fill="#fff"/>
    <path id="Trazado_1440" data-name="Trazado 1440" d="M163.52,125.392v-3.3h.559l1.485,2.455h.043V122.09h.515v3.3h-.562l-1.485-2.451h-.022v2.451Z" transform="translate(-104.576 -78.08)" fill="#fff"/>
    <path id="Trazado_1441" data-name="Trazado 1441" d="M174.72,124.1V122.09h.523v2.044c0,.458.126.829.721.829s.789-.252.789-.829V122.09h.519V124.1A1.186,1.186,0,0,1,176,125.45C174.929,125.45,174.72,124.747,174.72,124.1Z" transform="translate(-111.739 -78.08)" fill="#fff"/>
    <path id="Trazado_1442" data-name="Trazado 1442" d="M185.77,122.09H188.1v.5h-1.8v.851h1.683v.483H186.3v.962h1.882v.5h-2.4Z" transform="translate(-118.806 -78.08)" fill="#fff"/>
    <path id="Trazado_1443" data-name="Trazado 1443" d="M197.41,122.09h.57l-1.2,3.3h-.451l-1.182-3.3h.577l.811,2.523h.04Z" transform="translate(-124.805 -78.08)" fill="#fff"/>
    <path id="Trazado_1444" data-name="Trazado 1444" d="M205.431,122.09h.652l1.309,3.3H206.8l-.36-.908h-1.33l-.335.908h-.555Zm.847,1.947-.245-.721a8.111,8.111,0,0,1-.249-.793h-.036c-.043.209-.166.541-.249.793l-.26.721Z" transform="translate(-130.605 -78.08)" fill="#fff"/>
    <path id="Trazado_1445" data-name="Trazado 1445" d="M221.2,125.392v-3.3h.519v2.8h1.507v.5Z" transform="translate(-141.464 -78.08)" fill="#fff"/>
    <path id="Trazado_1446" data-name="Trazado 1446" d="M229.678,123.471l.865-1.381h.609l-1.262,1.849v1.442h-.512v-1.442l-1.218-1.849h.634l.847,1.381Z" transform="translate(-145.916 -78.08)" fill="#fff"/>
    <path id="Trazado_1447" data-name="Trazado 1447" d="M239.51,125.392v-3.3h.559l1.485,2.455h.043V122.09h.515v3.3h-.562l-1.485-2.451h-.018v2.451Z" transform="translate(-153.174 -78.08)" fill="#fff"/>
    <path id="Trazado_1448" data-name="Trazado 1448" d="M250.21,123.622a1.536,1.536,0,0,1,1.554-1.683,1.319,1.319,0,0,1,1.327,1.02l-.523.155a.9.9,0,0,0-.869-.678c-.548,0-.944.4-.944,1.186s.36,1.233.984,1.233a.887.887,0,0,0,.9-.753l.5.148a1.406,1.406,0,0,1-1.366,1.1A1.536,1.536,0,0,1,250.21,123.622Z" transform="translate(-160.017 -77.983)" fill="#fff"/>
    <path id="Trazado_1449" data-name="Trazado 1449" d="M261.79,125.392v-3.3h.515v1.355H263.9V122.09h.519v3.3H263.9v-1.464h-1.593v1.464Z" transform="translate(-167.423 -78.08)" fill="#fff"/>
  </g>
</svg>
