<svg xmlns="http://www.w3.org/2000/svg" width="31" height="31" viewBox="0 0 31 31">
  <g id="Grupo_1312" data-name="Grupo 1312" transform="translate(-759.5 -2603.369)">
    <g id="Rectángulo_2166" data-name="Rectángulo 2166" transform="translate(759.5 2603.369)" fill="#fff" stroke="#191919" stroke-width="1">
      <rect width="31" height="31" stroke="none"/>
      <rect x="0.5" y="0.5" width="30" height="30" fill="none"/>
    </g>
    <g id="noun_Fullscreen_1380428" transform="translate(1033.345 2851.214)">
      <g id="Grupo_1311" data-name="Grupo 1311" transform="translate(-269.25 -243.25)">
        <g id="Grupo_1310" data-name="Grupo 1310" transform="translate(0 0)">
          <path id="Trazado_1297" data-name="Trazado 1297" d="M51.114,49.853,35.552,34.291h0a.3.3,0,0,1,.21-.508H42.4a.892.892,0,0,0,.892-.892h0A.892.892,0,0,0,42.4,32H32.892a.892.892,0,0,0-.892.892V42.4h0a.892.892,0,0,0,.892.892h0a.892.892,0,0,0,.892-.892V35.763h0a.3.3,0,0,1,.508-.21L49.853,51.114h0a.3.3,0,0,1-.21.508H43a.892.892,0,0,0-.892.892h0a.892.892,0,0,0,.892.892h9.513a.892.892,0,0,0,.892-.892V43h0a.892.892,0,0,0-.892-.892h0a.892.892,0,0,0-.892.892v6.642h0a.3.3,0,0,1-.508.21Z" transform="translate(-32 -32)" fill="#d07401"/>
        </g>
      </g>
    </g>
  </g>
</svg>
