<svg xmlns="http://www.w3.org/2000/svg" width="66.609" height="66.609" viewBox="0 0 66.609 66.609">
  <g id="Grupo_1226" data-name="Grupo 1226" transform="translate(-477.942 -1311.391)">
    <circle id="Elipse_88" data-name="Elipse 88" cx="32.305" cy="32.305" r="32.305" transform="translate(478.942 1312.391)" fill="none" stroke="#99b6df" stroke-miterlimit="10" stroke-width="2"/>
    <g id="Grupo_786" data-name="Grupo 786" transform="translate(499.086 1326.743)">
      <path id="Trazado_762" data-name="Trazado 762" d="M4053.956,1344.7a.567.567,0,0,0,.369.185h0a.419.419,0,0,0,.37-.185c.462-.6,11.79-15.3,11.79-23.258a12.16,12.16,0,0,0-24.321,0c0,3.653,1.988,8.693,5.919,14.935A92.609,92.609,0,0,0,4053.956,1344.7Zm.369-34.447a11.2,11.2,0,0,1,11.19,11.189c0,6.844-9.247,19.6-11.236,22.194-1.988-2.542-11.189-14.75-11.189-22.194A11.238,11.238,0,0,1,4054.325,1310.255Z" transform="translate(-4042.165 -1309.33)" fill="#99b6df"/>
      <path id="Trazado_763" data-name="Trazado 763" d="M4063.2,1324.15a5.595,5.595,0,1,0-5.595,5.595A5.585,5.585,0,0,0,4063.2,1324.15Zm-10.311,0a4.67,4.67,0,1,1,4.716,4.716A4.736,4.736,0,0,1,4052.894,1324.15Z" transform="translate(-4045.449 -1312.405)" fill="#99b6df"/>
    </g>
  </g>
</svg>
