<svg id="Icon_awesome-linkedin-in" data-name="Icon awesome-linkedin-in" xmlns="http://www.w3.org/2000/svg" width="15.356" height="15.356" viewBox="0 0 15.356 15.356">
  <path id="Icon_awesome-linkedin-in-2" data-name="Icon awesome-linkedin-in" d="M3.437,15.357H.254V5.1H3.437ZM1.844,3.706A1.853,1.853,0,1,1,3.688,1.845,1.859,1.859,0,0,1,1.844,3.706ZM15.353,15.357H12.176V10.366c0-1.189-.024-2.715-1.655-2.715-1.655,0-1.909,1.292-1.909,2.629v5.077H5.432V5.1H8.485V6.5H8.53a3.345,3.345,0,0,1,3.012-1.656c3.222,0,3.814,2.122,3.814,4.878v5.632Z" transform="translate(0 -0.001)" fill="#b18442"/>
</svg>
