<svg xmlns="http://www.w3.org/2000/svg" width="66.609" height="66.609" viewBox="0 0 66.609 66.609">
  <g id="Grupo_1228" data-name="Grupo 1228" transform="translate(-1308.098 -1311.391)">
    <circle id="Elipse_90" data-name="Elipse 90" cx="32.305" cy="32.305" r="32.305" transform="translate(1309.098 1312.391)" fill="none" stroke="#99b6df" stroke-miterlimit="10" stroke-width="2"/>
    <g id="Grupo_788" data-name="Grupo 788" transform="translate(1326.154 1326.453)">
      <path id="Trazado_765" data-name="Trazado 765" d="M4657.867,1346.206a.667.667,0,0,1-.667-.667v-27.5a.667.667,0,0,1,1.333,0v27.5A.667.667,0,0,1,4657.867,1346.206Z" transform="translate(-4657.197 -1313.722)" fill="#99b6df"/>
      <path id="Trazado_766" data-name="Trazado 766" d="M4691.024,1359.958h-33.157a.667.667,0,0,1,0-1.333h33.157a.667.667,0,1,1,0,1.333Z" transform="translate(-4657.197 -1327.474)" fill="#99b6df"/>
      <path id="Trazado_767" data-name="Trazado 767" d="M4671.11,1350.783h-5.919v-18.345a1.333,1.333,0,0,1,1.333-1.333h3.253a1.333,1.333,0,0,1,1.333,1.333Zm-4.613-1.333h3.279v-17.012h-3.253Z" transform="translate(-4659.861 -1318.299)" fill="#99b6df"/>
      <path id="Trazado_768" data-name="Trazado 768" d="M4684.557,1353.834h-5.946v-12.246a1.333,1.333,0,0,1,1.333-1.333h3.279a1.333,1.333,0,0,1,1.333,1.333Zm-4.612-1.333h3.279v-10.912h-3.279Z" transform="translate(-4664.334 -1321.35)" fill="#99b6df"/>
      <path id="Trazado_769" data-name="Trazado 769" d="M4697.817,1347.863h-5.946v-24.185a1.333,1.333,0,0,1,1.333-1.333h3.28a1.334,1.334,0,0,1,1.333,1.333Zm-4.613-1.333h3.28v-22.852h-3.28Z" transform="translate(-4668.755 -1315.379)" fill="#99b6df"/>
      <path id="Trazado_770" data-name="Trazado 770" d="M4657.859,1328.034a.666.666,0,0,1-.473-1.133l6.979-7.173a.665.665,0,0,1,.746-.14l9.126,4.273,9.333-11.7a.666.666,0,1,1,1.065.8l-.026.033-9.646,12.106a.667.667,0,0,1-.8.193l-9.179-4.293-6.666,6.819A.668.668,0,0,1,4657.859,1328.034Z" transform="translate(-4657.195 -1311.895)" fill="#99b6df"/>
    </g>
  </g>
</svg>
