<svg xmlns="http://www.w3.org/2000/svg" width="1054" height="567" viewBox="0 0 1054 567">
  <g id="Grupo_1701" data-name="Grupo 1701" transform="translate(-8667.025 19599)">
    <circle id="Elipse_541" data-name="Elipse 541" cx="17" cy="17" r="17" transform="translate(8700.025 -19563)" fill="#2d3143"/>
    <ellipse id="Elipse_700" data-name="Elipse 700" cx="18" cy="17" rx="18" ry="17" transform="translate(9420.025 -19563)" fill="#2d3143"/>
    <ellipse id="Elipse_558" data-name="Elipse 558" cx="17" cy="18" rx="17" ry="18" transform="translate(8700.025 -19529)" fill="#2d3143"/>
    <circle id="Elipse_701" data-name="Elipse 701" cx="18" cy="18" r="18" transform="translate(9420.025 -19529)" fill="#2d3143"/>
    <circle id="Elipse_590" data-name="Elipse 590" cx="18" cy="18" r="18" transform="translate(8667.025 -19529)" fill="#2d3143"/>
    <circle id="Elipse_702" data-name="Elipse 702" cx="18" cy="18" r="18" transform="translate(9383.025 -19529)" fill="#2d3143"/>
    <ellipse id="Elipse_729" data-name="Elipse 729" cx="17.5" cy="18" rx="17.5" ry="18" transform="translate(9350.025 -19529)" fill="#2d3143"/>
    <ellipse id="Elipse_730" data-name="Elipse 730" cx="17.5" cy="18" rx="17.5" ry="18" transform="translate(9316.025 -19529)" fill="#2d3143"/>
    <ellipse id="Elipse_731" data-name="Elipse 731" cx="17" cy="18" rx="17" ry="18" transform="translate(9247.025 -19529)" fill="#2d3143"/>
    <ellipse id="Elipse_568" data-name="Elipse 568" cx="17" cy="17.5" rx="17" ry="17.5" transform="translate(8700.025 -19457)" fill="#2d3143"/>
    <ellipse id="Elipse_717" data-name="Elipse 717" cx="18" cy="17.5" rx="18" ry="17.5" transform="translate(9420.025 -19457)" fill="#2d3143"/>
    <circle id="Elipse_745" data-name="Elipse 745" cx="17.5" cy="17.5" r="17.5" transform="translate(9313.025 -19457)" fill="#2d3143"/>
    <ellipse id="Elipse_753" data-name="Elipse 753" cx="18" cy="17.5" rx="18" ry="17.5" transform="translate(9277.025 -19457)" fill="#2d3143"/>
    <ellipse id="Elipse_627" data-name="Elipse 627" cx="18" cy="17.5" rx="18" ry="17.5" transform="translate(9075.025 -19457)" fill="#2d3143"/>
    <ellipse id="Elipse_573" data-name="Elipse 573" cx="17" cy="17.5" rx="17" ry="17.5" transform="translate(8700.025 -19422)" fill="#2d3143"/>
    <ellipse id="Elipse_724" data-name="Elipse 724" cx="18" cy="17.5" rx="18" ry="17.5" transform="translate(9420.025 -19422)" fill="#2d3143"/>
    <circle id="Elipse_744" data-name="Elipse 744" cx="17.5" cy="17.5" r="17.5" transform="translate(9313.025 -19422)" fill="#2d3143"/>
    <ellipse id="Elipse_752" data-name="Elipse 752" cx="18" cy="17.5" rx="18" ry="17.5" transform="translate(9277.025 -19422)" fill="#2d3143"/>
    <circle id="Elipse_755" data-name="Elipse 755" cx="17.5" cy="17.5" r="17.5" transform="translate(9243.025 -19422)" fill="#2d3143"/>
    <circle id="Elipse_758" data-name="Elipse 758" cx="17.5" cy="17.5" r="17.5" transform="translate(9243.025 -19457)" fill="#2d3143"/>
    <circle id="Elipse_740" data-name="Elipse 740" cx="18" cy="18" r="18" transform="translate(9420.025 -19387)" fill="#2d3143"/>
    <circle id="Elipse_754" data-name="Elipse 754" cx="18" cy="18" r="18" transform="translate(9278.025 -19387)" fill="#2d3143"/>
    <circle id="Elipse_764" data-name="Elipse 764" cx="18" cy="18" r="18" transform="translate(9281.025 -19351)" fill="#2d3143"/>
    <ellipse id="Elipse_765" data-name="Elipse 765" cx="18" cy="17.5" rx="18" ry="17.5" transform="translate(9280.025 -19315)" fill="#2d3143"/>
    <ellipse id="Elipse_756" data-name="Elipse 756" cx="17.5" cy="18" rx="17.5" ry="18" transform="translate(9243.025 -19387)" fill="#2d3143"/>
    <circle id="Elipse_641" data-name="Elipse 641" cx="18" cy="18" r="18" transform="translate(9072.025 -19387)" fill="#2d3143"/>
    <circle id="Elipse_651" data-name="Elipse 651" cx="18" cy="18" r="18" transform="translate(9075.025 -19351)" fill="#2d3143"/>
    <ellipse id="Elipse_757" data-name="Elipse 757" cx="17.5" cy="18" rx="17.5" ry="18" transform="translate(9037.025 -19351)" fill="#2d3143"/>
    <ellipse id="Elipse_658" data-name="Elipse 658" cx="18" cy="17.5" rx="18" ry="17.5" transform="translate(9075.025 -19315)" fill="#2d3143"/>
    <ellipse id="Elipse_544" data-name="Elipse 544" cx="17.5" cy="17" rx="17.5" ry="17" transform="translate(8769.025 -19563)" fill="#2d3143"/>
    <ellipse id="Elipse_705" data-name="Elipse 705" cx="17.5" cy="17" rx="17.5" ry="17" transform="translate(9490.025 -19563)" fill="#2d3143"/>
    <ellipse id="Elipse_556" data-name="Elipse 556" cx="17.5" cy="18" rx="17.5" ry="18" transform="translate(8769.025 -19529)" fill="#2d3143"/>
    <ellipse id="Elipse_706" data-name="Elipse 706" cx="17.5" cy="18" rx="17.5" ry="18" transform="translate(9490.025 -19529)" fill="#2d3143"/>
    <ellipse id="Elipse_630" data-name="Elipse 630" cx="17.5" cy="18" rx="17.5" ry="18" transform="translate(9145.025 -19529)" fill="#2d3143"/>
    <ellipse id="Elipse_561" data-name="Elipse 561" cx="17.5" cy="18" rx="17.5" ry="18" transform="translate(8769.025 -19493)" fill="#2d3143"/>
    <ellipse id="Elipse_707" data-name="Elipse 707" cx="17.5" cy="18" rx="17.5" ry="18" transform="translate(9490.025 -19493)" fill="#2d3143"/>
    <circle id="Elipse_735" data-name="Elipse 735" cx="18" cy="18" r="18" transform="translate(9314.025 -19493)" fill="#2d3143"/>
    <circle id="Elipse_736" data-name="Elipse 736" cx="18" cy="18" r="18" transform="translate(9281.025 -19493)" fill="#2d3143"/>
    <ellipse id="Elipse_631" data-name="Elipse 631" cx="17.5" cy="18" rx="17.5" ry="18" transform="translate(9145.025 -19493)" fill="#2d3143"/>
    <circle id="Elipse_566" data-name="Elipse 566" cx="17.5" cy="17.5" r="17.5" transform="translate(8769.025 -19457)" fill="#2d3143"/>
    <circle id="Elipse_718" data-name="Elipse 718" cx="17.5" cy="17.5" r="17.5" transform="translate(9490.025 -19457)" fill="#2d3143"/>
    <circle id="Elipse_750" data-name="Elipse 750" cx="17.5" cy="17.5" r="17.5" transform="translate(9382.025 -19457)" fill="#2d3143"/>
    <circle id="Elipse_571" data-name="Elipse 571" cx="17.5" cy="17.5" r="17.5" transform="translate(8769.025 -19422)" fill="#2d3143"/>
    <circle id="Elipse_725" data-name="Elipse 725" cx="17.5" cy="17.5" r="17.5" transform="translate(9490.025 -19422)" fill="#2d3143"/>
    <circle id="Elipse_748" data-name="Elipse 748" cx="17.5" cy="17.5" r="17.5" transform="translate(9382.025 -19422)" fill="#2d3143"/>
    <ellipse id="Elipse_751" data-name="Elipse 751" cx="18" cy="17.5" rx="18" ry="17.5" transform="translate(9343.025 -19422)" fill="#2d3143"/>
    <ellipse id="Elipse_738" data-name="Elipse 738" cx="17.5" cy="18" rx="17.5" ry="18" transform="translate(9490.025 -19387)" fill="#2d3143"/>
    <ellipse id="Elipse_749" data-name="Elipse 749" cx="17.5" cy="18" rx="17.5" ry="18" transform="translate(9382.025 -19387)" fill="#2d3143"/>
    <ellipse id="Elipse_759" data-name="Elipse 759" cx="17.5" cy="18" rx="17.5" ry="18" transform="translate(9382.025 -19351)" fill="#2d3143"/>
    <circle id="Elipse_760" data-name="Elipse 760" cx="17.5" cy="17.5" r="17.5" transform="translate(9382.025 -19315)" fill="#2d3143"/>
    <ellipse id="Elipse_741" data-name="Elipse 741" cx="17.5" cy="18" rx="17.5" ry="18" transform="translate(9490.025 -19351)" fill="#2d3143"/>
    <circle id="Elipse_633" data-name="Elipse 633" cx="17.5" cy="17.5" r="17.5" transform="translate(9145.025 -19422)" fill="#2d3143"/>
    <circle id="Elipse_642" data-name="Elipse 642" cx="18" cy="18" r="18" transform="translate(9141.025 -19387)" fill="#2d3143"/>
    <ellipse id="Elipse_581" data-name="Elipse 581" cx="17.5" cy="18" rx="17.5" ry="18" transform="translate(8769.025 -19351)" fill="#2d3143"/>
    <ellipse id="Elipse_652" data-name="Elipse 652" cx="17.5" cy="18" rx="17.5" ry="18" transform="translate(9145.025 -19351)" fill="#2d3143"/>
    <circle id="Elipse_659" data-name="Elipse 659" cx="17.5" cy="17.5" r="17.5" transform="translate(9145.025 -19315)" fill="#2d3143"/>
    <ellipse id="Elipse_595" data-name="Elipse 595" cx="17.5" cy="18" rx="17.5" ry="18" transform="translate(8838.025 -19280)" fill="#2d3143"/>
    <ellipse id="Elipse_660" data-name="Elipse 660" cx="17.5" cy="18" rx="17.5" ry="18" transform="translate(9145.025 -19280)" fill="#2d3143"/>
    <circle id="Elipse_599" data-name="Elipse 599" cx="17.5" cy="17.5" r="17.5" transform="translate(8838.025 -19244)" fill="#2d3143"/>
    <circle id="Elipse_603" data-name="Elipse 603" cx="17.5" cy="17.5" r="17.5" transform="translate(8838.025 -19209)" fill="#2d3143"/>
    <ellipse id="Elipse_545" data-name="Elipse 545" cx="17.5" cy="17" rx="17.5" ry="17" transform="translate(8872.025 -19563)" fill="#2d3143"/>
    <ellipse id="Elipse_715" data-name="Elipse 715" cx="17.5" cy="17" rx="17.5" ry="17" transform="translate(9593.025 -19563)" fill="#2d3143"/>
    <ellipse id="Elipse_767" data-name="Elipse 767" cx="17.5" cy="18" rx="17.5" ry="18" transform="translate(9593.025 -19191)" fill="#2d3143"/>
    <ellipse id="Elipse_770" data-name="Elipse 770" cx="17.5" cy="18" rx="17.5" ry="18" transform="translate(9593.025 -19155)" fill="#2d3143"/>
    <ellipse id="Elipse_773" data-name="Elipse 773" cx="17.5" cy="17" rx="17.5" ry="17" transform="translate(9593.025 -19119)" fill="#2d3143"/>
    <ellipse id="Elipse_653" data-name="Elipse 653" cx="17.5" cy="17" rx="17.5" ry="17" transform="translate(9248.025 -19563)" fill="#2d3143"/>
    <ellipse id="Elipse_589" data-name="Elipse 589" cx="17.5" cy="18" rx="17.5" ry="18" transform="translate(8872.025 -19493)" fill="#2d3143"/>
    <circle id="Elipse_716" data-name="Elipse 716" cx="17.5" cy="17.5" r="17.5" transform="translate(9593.025 -19422)" fill="#2d3143"/>
    <circle id="Elipse_732" data-name="Elipse 732" cx="18" cy="18" r="18" transform="translate(9417.025 -19493)" fill="#2d3143"/>
    <ellipse id="Elipse_654" data-name="Elipse 654" cx="17.5" cy="18" rx="17.5" ry="18" transform="translate(9248.025 -19493)" fill="#2d3143"/>
    <ellipse id="Elipse_548" data-name="Elipse 548" cx="17.5" cy="18" rx="17.5" ry="18" transform="translate(9008.025 -19599)" fill="#2d3143"/>
    <circle id="Elipse_681" data-name="Elipse 681" cx="18" cy="18" r="18" transform="translate(9383.025 -19599)" fill="#2d3143"/>
    <ellipse id="Elipse_551" data-name="Elipse 551" cx="17.5" cy="17" rx="17.5" ry="17" transform="translate(9008.025 -19563)" fill="#2d3143"/>
    <ellipse id="Elipse_682" data-name="Elipse 682" cx="18" cy="17" rx="18" ry="17" transform="translate(9383.025 -19563)" fill="#2d3143"/>
    <ellipse id="Elipse_542" data-name="Elipse 542" cx="17.5" cy="17" rx="17.5" ry="17" transform="translate(8734.025 -19563)" fill="#2d3143"/>
    <circle id="Elipse_703" data-name="Elipse 703" cx="17" cy="17" r="17" transform="translate(9456.025 -19563)" fill="#2d3143"/>
    <ellipse id="Elipse_557" data-name="Elipse 557" cx="17.5" cy="18" rx="17.5" ry="18" transform="translate(8734.025 -19529)" fill="#2d3143"/>
    <ellipse id="Elipse_704" data-name="Elipse 704" cx="17" cy="18" rx="17" ry="18" transform="translate(9456.025 -19529)" fill="#2d3143"/>
    <ellipse id="Elipse_562" data-name="Elipse 562" cx="17.5" cy="18" rx="17.5" ry="18" transform="translate(8734.025 -19493)" fill="#2d3143"/>
    <ellipse id="Elipse_708" data-name="Elipse 708" cx="17" cy="18" rx="17" ry="18" transform="translate(9456.025 -19493)" fill="#2d3143"/>
    <ellipse id="Elipse_626" data-name="Elipse 626" cx="17" cy="18" rx="17" ry="18" transform="translate(9111.025 -19493)" fill="#2d3143"/>
    <circle id="Elipse_567" data-name="Elipse 567" cx="17.5" cy="17.5" r="17.5" transform="translate(8734.025 -19457)" fill="#2d3143"/>
    <ellipse id="Elipse_719" data-name="Elipse 719" cx="17" cy="17.5" rx="17" ry="17.5" transform="translate(9456.025 -19457)" fill="#2d3143"/>
    <ellipse id="Elipse_746" data-name="Elipse 746" cx="17" cy="17.5" rx="17" ry="17.5" transform="translate(9348.025 -19457)" fill="#2d3143"/>
    <ellipse id="Elipse_634" data-name="Elipse 634" cx="17" cy="17.5" rx="17" ry="17.5" transform="translate(9111.025 -19457)" fill="#2d3143"/>
    <circle id="Elipse_572" data-name="Elipse 572" cx="17.5" cy="17.5" r="17.5" transform="translate(8734.025 -19422)" fill="#2d3143"/>
    <ellipse id="Elipse_726" data-name="Elipse 726" cx="17" cy="17.5" rx="17" ry="17.5" transform="translate(9456.025 -19422)" fill="#2d3143"/>
    <ellipse id="Elipse_739" data-name="Elipse 739" cx="17" cy="18" rx="17" ry="18" transform="translate(9456.025 -19387)" fill="#2d3143"/>
    <ellipse id="Elipse_747" data-name="Elipse 747" cx="17" cy="18" rx="17" ry="18" transform="translate(9348.025 -19387)" fill="#2d3143"/>
    <ellipse id="Elipse_742" data-name="Elipse 742" cx="17" cy="18" rx="17" ry="18" transform="translate(9456.025 -19351)" fill="#2d3143"/>
    <ellipse id="Elipse_761" data-name="Elipse 761" cx="17" cy="18" rx="17" ry="18" transform="translate(9456.025 -19288)" fill="#2d3143"/>
    <ellipse id="Elipse_635" data-name="Elipse 635" cx="17" cy="17.5" rx="17" ry="17.5" transform="translate(9111.025 -19422)" fill="#2d3143"/>
    <ellipse id="Elipse_577" data-name="Elipse 577" cx="17.5" cy="18" rx="17.5" ry="18" transform="translate(8734.025 -19387)" fill="#2d3143"/>
    <ellipse id="Elipse_643" data-name="Elipse 643" cx="16.5" cy="18" rx="16.5" ry="18" transform="translate(9108.025 -19387)" fill="#2d3143"/>
    <ellipse id="Elipse_582" data-name="Elipse 582" cx="17.5" cy="18" rx="17.5" ry="18" transform="translate(8734.025 -19351)" fill="#2d3143"/>
    <ellipse id="Elipse_655" data-name="Elipse 655" cx="17" cy="18" rx="17" ry="18" transform="translate(9111.025 -19351)" fill="#2d3143"/>
    <ellipse id="Elipse_661" data-name="Elipse 661" cx="17" cy="17.5" rx="17" ry="17.5" transform="translate(9111.025 -19315)" fill="#2d3143"/>
    <circle id="Elipse_547" data-name="Elipse 547" cx="17" cy="17" r="17" transform="translate(8838.025 -19563)" fill="#2d3143"/>
    <circle id="Elipse_712" data-name="Elipse 712" cx="17" cy="17" r="17" transform="translate(9559.025 -19563)" fill="#2d3143"/>
    <ellipse id="Elipse_768" data-name="Elipse 768" cx="17" cy="18" rx="17" ry="18" transform="translate(9559.025 -19191)" fill="#2d3143"/>
    <ellipse id="Elipse_771" data-name="Elipse 771" cx="17" cy="18" rx="17" ry="18" transform="translate(9559.025 -19155)" fill="#2d3143"/>
    <ellipse id="Elipse_775" data-name="Elipse 775" cx="17" cy="18" rx="17" ry="18" transform="translate(9522.025 -19155)" fill="#2d3143"/>
    <circle id="Elipse_774" data-name="Elipse 774" cx="17" cy="17" r="17" transform="translate(9559.025 -19119)" fill="#2d3143"/>
    <ellipse id="Elipse_554" data-name="Elipse 554" cx="17" cy="18" rx="17" ry="18" transform="translate(8838.025 -19529)" fill="#2d3143"/>
    <ellipse id="Elipse_713" data-name="Elipse 713" cx="17" cy="18" rx="17" ry="18" transform="translate(9559.025 -19529)" fill="#2d3143"/>
    <ellipse id="Elipse_645" data-name="Elipse 645" cx="17" cy="18" rx="17" ry="18" transform="translate(9214.025 -19529)" fill="#2d3143"/>
    <ellipse id="Elipse_559" data-name="Elipse 559" cx="17" cy="18" rx="17" ry="18" transform="translate(8838.025 -19493)" fill="#2d3143"/>
    <ellipse id="Elipse_714" data-name="Elipse 714" cx="17" cy="18" rx="17" ry="18" transform="translate(9559.025 -19493)" fill="#2d3143"/>
    <ellipse id="Elipse_733" data-name="Elipse 733" cx="17" cy="18" rx="17" ry="18" transform="translate(9383.025 -19493)" fill="#2d3143"/>
    <ellipse id="Elipse_646" data-name="Elipse 646" cx="17" cy="18" rx="17" ry="18" transform="translate(9214.025 -19493)" fill="#2d3143"/>
    <ellipse id="Elipse_564" data-name="Elipse 564" cx="17" cy="17.5" rx="17" ry="17.5" transform="translate(8838.025 -19457)" fill="#2d3143"/>
    <ellipse id="Elipse_649" data-name="Elipse 649" cx="16.5" cy="18" rx="16.5" ry="18" transform="translate(9211.025 -19387)" fill="#2d3143"/>
    <ellipse id="Elipse_656" data-name="Elipse 656" cx="17" cy="18" rx="17" ry="18" transform="translate(9214.025 -19351)" fill="#2d3143"/>
    <ellipse id="Elipse_584" data-name="Elipse 584" cx="17" cy="17.5" rx="17" ry="17.5" transform="translate(8838.025 -19315)" fill="#2d3143"/>
    <ellipse id="Elipse_662" data-name="Elipse 662" cx="17" cy="17.5" rx="17" ry="17.5" transform="translate(9214.025 -19315)" fill="#2d3143"/>
    <ellipse id="Elipse_593" data-name="Elipse 593" cx="17.5" cy="18" rx="17.5" ry="18" transform="translate(8907.025 -19280)" fill="#2d3143"/>
    <ellipse id="Elipse_663" data-name="Elipse 663" cx="17" cy="18" rx="17" ry="18" transform="translate(9214.025 -19280)" fill="#2d3143"/>
    <circle id="Elipse_597" data-name="Elipse 597" cx="17.5" cy="17.5" r="17.5" transform="translate(8907.025 -19244)" fill="#2d3143"/>
    <ellipse id="Elipse_671" data-name="Elipse 671" cx="17" cy="17.5" rx="17" ry="17.5" transform="translate(9214.025 -19244)" fill="#2d3143"/>
    <circle id="Elipse_601" data-name="Elipse 601" cx="17.5" cy="17.5" r="17.5" transform="translate(8907.025 -19209)" fill="#2d3143"/>
    <ellipse id="Elipse_677" data-name="Elipse 677" cx="17" cy="17.5" rx="17" ry="17.5" transform="translate(9214.025 -19209)" fill="#2d3143"/>
    <ellipse id="Elipse_605" data-name="Elipse 605" cx="17.5" cy="18" rx="17.5" ry="18" transform="translate(8907.025 -19174)" fill="#2d3143"/>
    <ellipse id="Elipse_683" data-name="Elipse 683" cx="17" cy="18" rx="17" ry="18" transform="translate(9214.025 -19174)" fill="#2d3143"/>
    <ellipse id="Elipse_609" data-name="Elipse 609" cx="17.5" cy="18" rx="17.5" ry="18" transform="translate(8907.025 -19138)" fill="#b18442"/>
    <ellipse id="Elipse_591" data-name="Elipse 591" cx="17" cy="17.5" rx="17" ry="17.5" transform="translate(8873.025 -19315)" fill="#2d3143"/>
    <ellipse id="Elipse_664" data-name="Elipse 664" cx="16.5" cy="17.5" rx="16.5" ry="17.5" transform="translate(9247.025 -19315)" fill="#2d3143"/>
    <ellipse id="Elipse_665" data-name="Elipse 665" cx="16.5" cy="18" rx="16.5" ry="18" transform="translate(9250.025 -19280)" fill="#2d3143"/>
    <ellipse id="Elipse_596" data-name="Elipse 596" cx="16.5" cy="17.5" rx="16.5" ry="17.5" transform="translate(8943.025 -19244)" fill="#2d3143"/>
    <ellipse id="Elipse_672" data-name="Elipse 672" cx="16.5" cy="17.5" rx="16.5" ry="17.5" transform="translate(9250.025 -19244)" fill="#2d3143"/>
    <ellipse id="Elipse_600" data-name="Elipse 600" cx="16.5" cy="17.5" rx="16.5" ry="17.5" transform="translate(8943.025 -19209)" fill="#2d3143"/>
    <ellipse id="Elipse_604" data-name="Elipse 604" cx="16.5" cy="18" rx="16.5" ry="18" transform="translate(8943.025 -19174)" fill="#2d3143"/>
    <ellipse id="Elipse_699" data-name="Elipse 699" cx="17.5" cy="18" rx="17.5" ry="18" transform="translate(9284.025 -19174)" fill="#2d3143"/>
    <ellipse id="Elipse_550" data-name="Elipse 550" cx="17.5" cy="18" rx="17.5" ry="18" transform="translate(8973.025 -19599)" fill="#2d3143"/>
    <ellipse id="Elipse_674" data-name="Elipse 674" cx="16.5" cy="18" rx="16.5" ry="18" transform="translate(9350.025 -19599)" fill="#2d3143"/>
    <ellipse id="Elipse_552" data-name="Elipse 552" cx="17.5" cy="17" rx="17.5" ry="17" transform="translate(8973.025 -19563)" fill="#2d3143"/>
    <ellipse id="Elipse_675" data-name="Elipse 675" cx="16.5" cy="17" rx="16.5" ry="17" transform="translate(9350.025 -19563)" fill="#2d3143"/>
    <circle id="Elipse_728" data-name="Elipse 728" cx="17" cy="17" r="17" transform="translate(9316.025 -19563)" fill="#2d3143"/>
    <circle id="Elipse_543" data-name="Elipse 543" cx="17" cy="17" r="17" transform="translate(8804.025 -19563)" fill="#2d3143"/>
    <circle id="Elipse_709" data-name="Elipse 709" cx="17" cy="17" r="17" transform="translate(9525.025 -19563)" fill="#2d3143"/>
    <circle id="Elipse_636" data-name="Elipse 636" cx="17" cy="17" r="17" transform="translate(9180.025 -19563)" fill="#2d3143"/>
    <ellipse id="Elipse_555" data-name="Elipse 555" cx="17" cy="18" rx="17" ry="18" transform="translate(8804.025 -19529)" fill="#2d3143"/>
    <ellipse id="Elipse_710" data-name="Elipse 710" cx="17" cy="18" rx="17" ry="18" transform="translate(9525.025 -19529)" fill="#2d3143"/>
    <ellipse id="Elipse_637" data-name="Elipse 637" cx="17" cy="18" rx="17" ry="18" transform="translate(9180.025 -19529)" fill="#2d3143"/>
    <ellipse id="Elipse_560" data-name="Elipse 560" cx="17" cy="18" rx="17" ry="18" transform="translate(8804.025 -19493)" fill="#2d3143"/>
    <ellipse id="Elipse_711" data-name="Elipse 711" cx="17" cy="18" rx="17" ry="18" transform="translate(9525.025 -19493)" fill="#2d3143"/>
    <ellipse id="Elipse_734" data-name="Elipse 734" cx="16.5" cy="18" rx="16.5" ry="18" transform="translate(9350.025 -19493)" fill="#2d3143"/>
    <ellipse id="Elipse_638" data-name="Elipse 638" cx="17" cy="18" rx="17" ry="18" transform="translate(9180.025 -19493)" fill="#2d3143"/>
    <ellipse id="Elipse_565" data-name="Elipse 565" cx="17" cy="17.5" rx="17" ry="17.5" transform="translate(8804.025 -19457)" fill="#2d3143"/>
    <ellipse id="Elipse_721" data-name="Elipse 721" cx="17" cy="17.5" rx="17" ry="17.5" transform="translate(9525.025 -19457)" fill="#2d3143"/>
    <ellipse id="Elipse_639" data-name="Elipse 639" cx="17" cy="17.5" rx="17" ry="17.5" transform="translate(9180.025 -19457)" fill="#2d3143"/>
    <ellipse id="Elipse_570" data-name="Elipse 570" cx="17" cy="17.5" rx="17" ry="17.5" transform="translate(8804.025 -19422)" fill="#2d3143"/>
    <ellipse id="Elipse_727" data-name="Elipse 727" cx="17" cy="17.5" rx="17" ry="17.5" transform="translate(9525.025 -19422)" fill="#2d3143"/>
    <ellipse id="Elipse_737" data-name="Elipse 737" cx="17" cy="18" rx="17" ry="18" transform="translate(9525.025 -19387)" fill="#2d3143"/>
    <ellipse id="Elipse_762" data-name="Elipse 762" cx="17" cy="18" rx="17" ry="18" transform="translate(9525.025 -19288)" fill="#2d3143"/>
    <ellipse id="Elipse_650" data-name="Elipse 650" cx="17" cy="18" rx="17" ry="18" transform="translate(9177.025 -19387)" fill="#2d3143"/>
    <ellipse id="Elipse_657" data-name="Elipse 657" cx="17" cy="18" rx="17" ry="18" transform="translate(9180.025 -19351)" fill="#2d3143"/>
    <ellipse id="Elipse_585" data-name="Elipse 585" cx="17" cy="17.5" rx="17" ry="17.5" transform="translate(8804.025 -19315)" fill="#2d3143"/>
    <ellipse id="Elipse_666" data-name="Elipse 666" cx="17" cy="17.5" rx="17" ry="17.5" transform="translate(9180.025 -19315)" fill="#2d3143"/>
    <ellipse id="Elipse_594" data-name="Elipse 594" cx="17" cy="18" rx="17" ry="18" transform="translate(8873.025 -19280)" fill="#2d3143"/>
    <ellipse id="Elipse_667" data-name="Elipse 667" cx="17" cy="18" rx="17" ry="18" transform="translate(9180.025 -19280)" fill="#2d3143"/>
    <ellipse id="Elipse_598" data-name="Elipse 598" cx="17" cy="17.5" rx="17" ry="17.5" transform="translate(8873.025 -19244)" fill="#2d3143"/>
    <ellipse id="Elipse_673" data-name="Elipse 673" cx="17" cy="17.5" rx="17" ry="17.5" transform="translate(9180.025 -19244)" fill="#2d3143"/>
    <ellipse id="Elipse_602" data-name="Elipse 602" cx="17" cy="17.5" rx="17" ry="17.5" transform="translate(8873.025 -19209)" fill="#2d3143"/>
    <ellipse id="Elipse_679" data-name="Elipse 679" cx="17" cy="17.5" rx="17" ry="17.5" transform="translate(9180.025 -19209)" fill="#2d3143"/>
    <ellipse id="Elipse_606" data-name="Elipse 606" cx="17" cy="18" rx="17" ry="18" transform="translate(8873.025 -19174)" fill="#2d3143"/>
    <ellipse id="Elipse_685" data-name="Elipse 685" cx="17" cy="18" rx="17" ry="18" transform="translate(9180.025 -19174)" fill="#2d3143"/>
    <ellipse id="Elipse_610" data-name="Elipse 610" cx="17" cy="18" rx="17" ry="18" transform="translate(8873.025 -19138)" fill="#2d3143"/>
    <ellipse id="Elipse_689" data-name="Elipse 689" cx="17" cy="18" rx="17" ry="18" transform="translate(9180.025 -19138)" fill="#2d3143"/>
    <circle id="Elipse_614" data-name="Elipse 614" cx="17" cy="17" r="17" transform="translate(8873.025 -19102)" fill="#2d3143"/>
    <ellipse id="Elipse_618" data-name="Elipse 618" cx="17" cy="18" rx="17" ry="18" transform="translate(8873.025 -19068)" fill="#2d3143"/>
    <ellipse id="Elipse_546" data-name="Elipse 546" cx="17.5" cy="17" rx="17.5" ry="17" transform="translate(8907.025 -19563)" fill="#2d3143"/>
    <circle id="Elipse_722" data-name="Elipse 722" cx="17" cy="17" r="17" transform="translate(9628.025 -19563)" fill="#2d3143"/>
    <ellipse id="Elipse_766" data-name="Elipse 766" cx="17" cy="18" rx="17" ry="18" transform="translate(9628.025 -19191)" fill="#2d3143"/>
    <ellipse id="Elipse_769" data-name="Elipse 769" cx="17" cy="18" rx="17" ry="18" transform="translate(9628.025 -19155)" fill="#2d3143"/>
    <ellipse id="Elipse_777" data-name="Elipse 777" cx="17" cy="18" rx="17" ry="18" transform="translate(9653.025 -19085)" fill="#2d3143"/>
    <circle id="Elipse_776" data-name="Elipse 776" cx="17" cy="17" r="17" transform="translate(9687.025 -19119)" fill="#2d3143"/>
    <circle id="Elipse_668" data-name="Elipse 668" cx="17" cy="17" r="17" transform="translate(9283.025 -19563)" fill="#2d3143"/>
    <ellipse id="Elipse_553" data-name="Elipse 553" cx="17.5" cy="18" rx="17.5" ry="18" transform="translate(8907.025 -19529)" fill="#2d3143"/>
    <ellipse id="Elipse_723" data-name="Elipse 723" cx="17" cy="18" rx="17" ry="18" transform="translate(9628.025 -19529)" fill="#2d3143"/>
    <ellipse id="Elipse_763" data-name="Elipse 763" cx="17" cy="17.5" rx="17" ry="17.5" transform="translate(9628.025 -19258)" fill="#2d3143"/>
    <ellipse id="Elipse_669" data-name="Elipse 669" cx="17" cy="18" rx="17" ry="18" transform="translate(9283.025 -19529)" fill="#2d3143"/>
    <ellipse id="Elipse_549" data-name="Elipse 549" cx="17" cy="18" rx="17" ry="18" transform="translate(9043.025 -19599)" fill="#2d3143"/>
  </g>
</svg>
