<?xml version="1.0" encoding="utf-8"?>
<!-- Generator: Adobe Illustrator 24.0.1, SVG Export Plug-In . SVG Version: 6.00 Build 0)  -->
<svg version="1.1" id="Layer_1" xmlns="http://www.w3.org/2000/svg" xmlns:xlink="http://www.w3.org/1999/xlink" x="0px" y="0px"
	 viewBox="0 0 366 56" style="enable-background:new 0 0 366 56;" xml:space="preserve">
<style type="text/css">
	.st0{fill:#FFFFFF;}
	.st1{fill:none;stroke:#E6E6E6;stroke-miterlimit:10;}
	.st2{fill:#E6E6E6;}
</style>
<g>
	<path class="st0" d="M151,19.5c1,0,1.9,0.2,2.7,0.5c0.8,0.3,1.5,0.8,2.1,1.3c0.6,0.6,1,1.2,1.3,2c0.3,0.7,0.5,1.5,0.5,2.4
		c0,1.3-0.3,2.5-0.8,3.4c-0.6,1-1.5,1.7-2.7,2.2v0.1c0.6,0.2,1.1,0.4,1.5,0.8c0.4,0.3,0.7,0.8,1,1.2c0.3,0.5,0.4,1,0.5,1.6
		c0.1,0.6,0.2,1.1,0.2,1.7c0,0.4,0,0.8,0.1,1.3c0,0.5,0.1,1,0.1,1.5c0.1,0.5,0.1,1,0.3,1.4c0.1,0.5,0.3,0.8,0.5,1.1h-4.9
		c-0.3-0.7-0.4-1.6-0.5-2.5c-0.1-1-0.2-1.9-0.3-2.8c-0.2-1.2-0.5-2-1.1-2.6c-0.5-0.5-1.4-0.8-2.7-0.8h-4.9v8.8h-4.9V19.5H151z
		 M149.3,29.6c1.1,0,2-0.3,2.5-0.8c0.6-0.5,0.8-1.3,0.8-2.4c0-1.1-0.3-1.9-0.8-2.4c-0.6-0.5-1.4-0.7-2.5-0.7h-5.4v6.3H149.3z"/>
	<path class="st0" d="M177.6,19.5v4.1h-11.8v4.8h10.9v3.8h-10.9v5.5h12.1v4.1h-17V19.5H177.6z"/>
	<path class="st0" d="M190.1,19.5c1.4,0,2.8,0.2,4,0.7c1.2,0.5,2.3,1.2,3.2,2.1c0.9,0.9,1.6,2.1,2.1,3.5c0.5,1.4,0.8,3,0.8,4.9
		c0,1.6-0.2,3.1-0.6,4.5c-0.4,1.4-1.1,2.6-1.9,3.6c-0.8,1-1.9,1.8-3.2,2.4c-1.3,0.6-2.8,0.9-4.5,0.9h-9.7V19.5H190.1z M189.8,37.8
		c0.7,0,1.4-0.1,2.1-0.3c0.7-0.2,1.3-0.6,1.8-1.1c0.5-0.5,0.9-1.2,1.3-2.1c0.3-0.9,0.5-1.9,0.5-3.1c0-1.1-0.1-2.1-0.3-3.1
		c-0.2-0.9-0.6-1.7-1.1-2.3c-0.5-0.6-1.2-1.1-2-1.5c-0.8-0.3-1.8-0.5-3.1-0.5h-3.5v14.1H189.8z"/>
	<path class="st0" d="M211.9,31.4v3.8h-9.4v-3.8H211.9z"/>
	<path class="st0" d="M214.6,23.2v-3.7h4.5v3.7H214.6z M219,25.7v16.2h-4.5V25.7H219z"/>
</g>
<g>
	<path class="st0" d="M231.1,15.1h0.6v31.4h-0.6V15.1z"/>
</g>
<g>
	<path class="st0" d="M256.3,19.5c1,0,1.9,0.2,2.7,0.5c0.8,0.3,1.5,0.8,2.1,1.3c0.6,0.6,1,1.2,1.3,2c0.3,0.7,0.5,1.5,0.5,2.4
		c0,1.3-0.3,2.5-0.8,3.4c-0.6,1-1.5,1.7-2.7,2.2v0.1c0.6,0.2,1.1,0.4,1.5,0.8c0.4,0.3,0.7,0.8,1,1.2c0.3,0.5,0.4,1,0.5,1.6
		c0.1,0.6,0.2,1.1,0.2,1.7c0,0.4,0,0.8,0.1,1.3c0,0.5,0.1,1,0.1,1.5c0.1,0.5,0.1,1,0.3,1.4c0.1,0.5,0.3,0.8,0.5,1.1h-4.9
		c-0.3-0.7-0.4-1.6-0.5-2.5c-0.1-1-0.2-1.9-0.3-2.8c-0.2-1.2-0.5-2-1.1-2.6c-0.5-0.5-1.4-0.8-2.7-0.8h-4.9v8.8h-4.9V19.5H256.3z
		 M254.5,29.6c1.1,0,2-0.3,2.5-0.8c0.6-0.5,0.8-1.3,0.8-2.4c0-1.1-0.3-1.9-0.8-2.4c-0.6-0.5-1.4-0.7-2.5-0.7h-5.4v6.3H254.5z"/>
	<path class="st0" d="M270.4,38c0.7,0.6,1.6,1,2.9,1c0.9,0,1.7-0.2,2.3-0.7c0.6-0.4,1-0.9,1.2-1.4h3.9c-0.6,1.9-1.6,3.3-2.9,4.2
		c-1.3,0.8-2.9,1.3-4.7,1.3c-1.3,0-2.4-0.2-3.5-0.6c-1-0.4-1.9-1-2.6-1.7c-0.7-0.8-1.3-1.7-1.6-2.7c-0.4-1-0.6-2.2-0.6-3.5
		c0-1.2,0.2-2.3,0.6-3.4c0.4-1,1-2,1.7-2.7c0.7-0.8,1.6-1.4,2.6-1.8c1-0.4,2.1-0.7,3.4-0.7c1.4,0,2.6,0.3,3.6,0.8
		c1,0.5,1.9,1.3,2.5,2.1c0.7,0.9,1.1,1.9,1.4,3.1c0.3,1.2,0.4,2.4,0.3,3.6h-11.7C269.4,36.3,269.7,37.4,270.4,38z M275.5,29.5
		c-0.5-0.6-1.3-0.9-2.4-0.9c-0.7,0-1.3,0.1-1.8,0.4c-0.5,0.2-0.8,0.5-1.1,0.9c-0.3,0.4-0.5,0.7-0.6,1.1c-0.1,0.4-0.2,0.8-0.2,1.1
		h7.2C276.4,30.9,276,30.1,275.5,29.5z"/>
	<path class="st0" d="M286.7,37.9c0.2,0.3,0.5,0.6,0.8,0.8c0.3,0.2,0.7,0.4,1.1,0.5c0.4,0.1,0.8,0.2,1.3,0.2c0.3,0,0.6,0,1-0.1
		c0.3-0.1,0.7-0.2,0.9-0.3c0.3-0.2,0.5-0.4,0.7-0.6c0.2-0.3,0.3-0.6,0.3-1c0-0.7-0.4-1.2-1.3-1.5c-0.9-0.3-2.1-0.7-3.7-1
		c-0.6-0.1-1.3-0.3-1.9-0.5c-0.6-0.2-1.2-0.5-1.6-0.8c-0.5-0.3-0.9-0.7-1.2-1.2c-0.3-0.5-0.4-1.1-0.4-1.8c0-1,0.2-1.9,0.6-2.6
		c0.4-0.7,0.9-1.2,1.6-1.6c0.7-0.4,1.4-0.7,2.3-0.8c0.8-0.2,1.7-0.2,2.6-0.2s1.7,0.1,2.6,0.3c0.8,0.2,1.6,0.5,2.2,0.8
		c0.6,0.4,1.2,0.9,1.6,1.6c0.4,0.7,0.7,1.5,0.8,2.5h-4.2c-0.1-0.9-0.4-1.4-1-1.7c-0.6-0.3-1.3-0.5-2.1-0.5c-0.3,0-0.5,0-0.8,0
		c-0.3,0-0.6,0.1-0.8,0.2c-0.2,0.1-0.4,0.3-0.6,0.5c-0.2,0.2-0.3,0.5-0.3,0.8c0,0.4,0.1,0.7,0.4,1c0.3,0.3,0.7,0.5,1.1,0.6
		c0.5,0.2,1,0.3,1.6,0.4c0.6,0.1,1.2,0.3,1.9,0.4c0.6,0.1,1.3,0.3,1.9,0.5c0.6,0.2,1.2,0.5,1.6,0.8c0.5,0.3,0.9,0.8,1.2,1.3
		c0.3,0.5,0.4,1.1,0.4,1.9c0,1.1-0.2,2-0.6,2.7c-0.4,0.7-1,1.3-1.7,1.7c-0.7,0.4-1.5,0.7-2.4,0.9c-0.9,0.2-1.8,0.3-2.7,0.3
		c-0.9,0-1.9-0.1-2.8-0.3c-0.9-0.2-1.7-0.5-2.4-0.9c-0.7-0.4-1.3-1-1.7-1.7c-0.5-0.7-0.7-1.6-0.7-2.7h4.2
		C286.4,37.1,286.5,37.5,286.7,37.9z"/>
	<path class="st0" d="M303.2,25.7v2.1h0.1c0.5-0.9,1.2-1.5,2.1-1.9c0.8-0.4,1.8-0.6,2.8-0.6c1.3,0,2.4,0.2,3.3,0.7
		c0.9,0.5,1.7,1.1,2.3,1.9c0.6,0.8,1.1,1.7,1.3,2.8c0.3,1.1,0.4,2.2,0.4,3.3c0,1.1-0.1,2.1-0.4,3.1c-0.3,1-0.7,1.9-1.3,2.7
		c-0.6,0.8-1.3,1.4-2.2,1.9c-0.9,0.5-1.9,0.7-3.1,0.7c-1,0-1.9-0.2-2.8-0.6s-1.5-1-2.1-1.8h-0.1v7.7H299V25.7H303.2z M309,38.5
		c0.5-0.3,0.9-0.7,1.2-1.1c0.3-0.5,0.5-1,0.6-1.6c0.1-0.6,0.2-1.3,0.2-1.9c0-0.6-0.1-1.3-0.2-1.9c-0.1-0.6-0.4-1.2-0.7-1.7
		c-0.3-0.5-0.7-0.9-1.2-1.2c-0.5-0.3-1.1-0.5-1.8-0.5c-0.7,0-1.3,0.2-1.8,0.5c-0.5,0.3-0.9,0.7-1.2,1.2c-0.3,0.5-0.5,1-0.6,1.7
		c-0.1,0.6-0.2,1.3-0.2,1.9c0,0.6,0.1,1.3,0.2,1.9c0.1,0.6,0.4,1.2,0.7,1.6c0.3,0.5,0.7,0.9,1.2,1.1c0.5,0.3,1.1,0.4,1.8,0.4
		C307.9,39,308.5,38.8,309,38.5z"/>
	<path class="st0" d="M317.6,23.2v-3.7h4.5v3.7H317.6z M322,25.7v16.2h-4.5V25.7H322z"/>
	<path class="st0" d="M329,25.7v3h0.1c0.2-0.5,0.5-1,0.8-1.4c0.4-0.4,0.8-0.8,1.2-1.1c0.5-0.3,1-0.5,1.5-0.7
		c0.5-0.2,1.1-0.3,1.6-0.3c0.3,0,0.6,0.1,1,0.2v4.1c-0.2,0-0.5-0.1-0.8-0.1c-0.3,0-0.6,0-0.8,0c-0.8,0-1.5,0.1-2.1,0.4
		c-0.6,0.3-1,0.6-1.4,1.1c-0.3,0.5-0.6,1-0.7,1.6c-0.1,0.6-0.2,1.3-0.2,2v7.3h-4.5V25.7H329z"/>
	<path class="st0" d="M336,30.7c0.1-1,0.3-1.9,0.8-2.6c0.5-0.7,1-1.2,1.8-1.7c0.7-0.4,1.5-0.7,2.4-0.9c0.9-0.2,1.8-0.3,2.7-0.3
		c0.8,0,1.6,0.1,2.5,0.2c0.8,0.1,1.6,0.3,2.3,0.7c0.7,0.3,1.3,0.8,1.7,1.4c0.4,0.6,0.7,1.4,0.7,2.4v8.4c0,0.7,0,1.4,0.1,2.1
		c0.1,0.7,0.2,1.2,0.4,1.5h-4.5c-0.1-0.3-0.2-0.5-0.2-0.8c-0.1-0.3-0.1-0.5-0.1-0.8c-0.7,0.7-1.5,1.2-2.5,1.5c-1,0.3-1.9,0.4-3,0.4
		c-0.8,0-1.5-0.1-2.2-0.3c-0.7-0.2-1.3-0.5-1.8-0.9c-0.5-0.4-0.9-0.9-1.2-1.5c-0.3-0.6-0.4-1.3-0.4-2.2c0-0.9,0.2-1.7,0.5-2.3
		c0.3-0.6,0.7-1.1,1.3-1.4c0.5-0.4,1.1-0.6,1.8-0.8c0.7-0.2,1.3-0.3,2-0.4c0.7-0.1,1.3-0.2,2-0.3c0.6-0.1,1.2-0.2,1.7-0.3
		c0.5-0.1,0.9-0.3,1.2-0.5c0.3-0.2,0.4-0.6,0.4-1.1c0-0.5-0.1-0.9-0.2-1.1c-0.2-0.3-0.4-0.5-0.6-0.7c-0.3-0.2-0.6-0.3-0.9-0.3
		c-0.3-0.1-0.7-0.1-1.1-0.1c-0.9,0-1.6,0.2-2.1,0.6c-0.5,0.4-0.8,1-0.9,1.9H336z M346.3,34c-0.2,0.2-0.4,0.3-0.7,0.4
		c-0.3,0.1-0.6,0.2-0.9,0.2c-0.3,0.1-0.7,0.1-1,0.2c-0.4,0-0.7,0.1-1.1,0.2c-0.3,0.1-0.7,0.1-1,0.3c-0.3,0.1-0.6,0.2-0.8,0.4
		c-0.2,0.2-0.4,0.4-0.6,0.7c-0.1,0.3-0.2,0.6-0.2,1c0,0.4,0.1,0.7,0.2,1c0.1,0.3,0.3,0.5,0.6,0.6c0.3,0.2,0.5,0.3,0.9,0.3
		c0.3,0.1,0.7,0.1,1,0.1c0.9,0,1.6-0.1,2-0.4c0.5-0.3,0.8-0.6,1.1-1.1c0.2-0.4,0.4-0.8,0.4-1.2c0.1-0.4,0.1-0.8,0.1-1V34z"/>
	<path class="st0" d="M358.6,37.1v4.8h-4.9v-4.8H358.6z"/>
</g>
<path class="st1" d="M19,45.5L5.9,32.4c-1.2-1.2-1.2-3.2,0-4.4L19,14.9c1.2-1.2,3.2-1.2,4.4,0L36.5,28c1.2,1.2,1.2,3.2,0,4.4
	L23.4,45.5C22.2,46.7,20.2,46.7,19,45.5z"/>
<path class="st2" d="M31.1,31.2c-0.5,0.5-1.4,0.5-2,0c-0.5-0.5-0.5-1.4,0-2c0.5-0.5,1.4-0.5,2,0C31.7,29.8,31.7,30.7,31.1,31.2"/>
<polygon class="st2" points="20.9,41.1 16.4,36.5 18.1,34.8 20.9,37.6 26.7,31.8 28.5,33.5 "/>
<path class="st2" d="M87.3,24.9l-6-3.4l-0.4,0.6l6,3.5C87.1,25.3,87.2,25.1,87.3,24.9"/>
<path class="st2" d="M87,33.1l-2.9,1.7L81,36.7l0.4,0.6l6.1-3.5C87.3,33.6,87.2,33.4,87,33.1"/>
<path class="st2" d="M89.2,22.8l-4.5-5.3L84.2,18l4.5,5.3C88.8,23.1,89,22.9,89.2,22.8"/>
<path class="st2" d="M99.9,23.2l4.4-5.3l-0.6-0.5l-4.4,5.3C99.5,22.9,99.7,23.1,99.9,23.2"/>
<path class="st2" d="M97.4,21.7l2.3-6.5L99.1,15l-2.3,6.5C97,21.5,97.2,21.6,97.4,21.7"/>
<path class="st2" d="M99.3,35.8l2.2,2.6l2.3,2.7l0.6-0.5l-4.5-5.3C99.7,35.5,99.5,35.7,99.3,35.8"/>
<path class="st2" d="M102.3,31.1l3.4,0.6l3.5,0.6l0.1-0.7l-6.8-1.2C102.4,30.6,102.4,30.9,102.3,31.1"/>
<path class="st2" d="M101.2,33.7l6,3.5l0.4-0.6l-6-3.5C101.5,33.3,101.3,33.5,101.2,33.7"/>
<path class="st2" d="M93.9,37.5v3.4v3.6h0.7v-3.6v-3.4c-0.1,0-0.2,0-0.3,0C94.2,37.5,94,37.5,93.9,37.5"/>
<path class="st2" d="M91.9,37.1c-0.2-0.1-0.5-0.2-0.7-0.2L90,40.1l-1.2,3.4l0.7,0.2l1.2-3.4L91.9,37.1z"/>
<path class="st2" d="M82.9,39.4l2.8-2.3c-0.2-0.2-0.3-0.4-0.5-0.6l-2.8,2.3L82.9,39.4z"/>
<path class="st2" d="M79.9,34.2l0.2,0.7l3.4-1.2c-0.1-0.2-0.2-0.4-0.3-0.7L79.9,34.2z"/>
<path class="st2" d="M92.6,17.8l-0.6-3.4l-0.7,0.1l0.6,3.4C92.1,17.8,92.3,17.8,92.6,17.8"/>
<path class="st2" d="M89.9,18.5l1.2,3.2c0.2-0.1,0.4-0.2,0.7-0.3l-1.2-3.2L89.4,15l-0.7,0.3L89.9,18.5z"/>
<path class="st2" d="M85.6,21.6l-2.7-2.2l-0.5,0.6l2.7,2.3C85.3,21.9,85.4,21.8,85.6,21.6"/>
<path class="st2" d="M93.9,17.6V21c0.1,0,0.3,0,0.4,0c0.1,0,0.2,0,0.3,0v-3.4v-3.5h-0.7V17.6z"/>
<path class="st2" d="M88.7,19L87,16l-0.6,0.4l1.7,3C88.3,19.3,88.5,19.2,88.7,19"/>
<path class="st2" d="M104.2,23.2l-2.9,1.7c0.1,0.2,0.2,0.4,0.4,0.6l2.9-1.7l3-1.8l-0.4-0.6L104.2,23.2z"/>
<path class="st2" d="M103.5,22.1l2.7-2.2l-0.5-0.6l-2.7,2.2C103.2,21.7,103.3,21.9,103.5,22.1"/>
<path class="st2" d="M105.4,25.7l3.3-1.2l-0.2-0.7l-3.3,1.2C105.2,25.2,105.3,25.4,105.4,25.7"/>
<path class="st2" d="M105.7,27l-3.4,0.6c0,0.2,0.1,0.5,0.1,0.7l3.4-0.6l3.5-0.6l-0.1-0.7L105.7,27z"/>
<path class="st2" d="M102.2,16.4l-0.6-0.4l-1.7,3c0.2,0.1,0.4,0.2,0.6,0.4L102.2,16.4z"/>
<path class="st2" d="M97.3,14.5l-0.7-0.1L96,17.8c0.2,0,0.5,0.1,0.7,0.1L97.3,14.5z"/>
<path class="st2" d="M98.6,40.1l-1.2-3.2C97.2,37,97,37,96.8,37.1l1.2,3.2l1.3,3.4l0.7-0.3L98.6,40.1z"/>
<path class="st2" d="M102.9,37.1l2.7,2.3l0.5-0.6l-2.7-2.3C103.2,36.7,103.1,36.9,102.9,37.1"/>
<path class="st2" d="M96,40.8l0.6,3.6l0.7-0.1l-0.6-3.6C96.5,40.7,96.2,40.7,96,40.8"/>
<path class="st2" d="M83.5,25l-3.3-1.2l-0.2,0.7l3.3,1.2C83.3,25.5,83.4,25.3,83.5,25"/>
<path class="st2" d="M105.1,33.6l3.3,1.2l0.2-0.7l-3.3-1.2C105.3,33.2,105.2,33.4,105.1,33.6"/>
<path class="st2" d="M105.9,29c0,0.1,0,0.2,0,0.3c0,0.2,0,0.3,0,0.5l3.5,0l0-0.7L105.9,29z"/>
<path class="st2" d="M99.8,39.5l1.8,3.1l0.6-0.4l-1.8-3.1C100.2,39.3,100,39.4,99.8,39.5"/>
<path class="st2" d="M82.7,29.3c0-0.1,0-0.2,0-0.3l-3.6,0l0,0.7l3.6,0C82.7,29.6,82.7,29.4,82.7,29.3"/>
<path class="st2" d="M82.9,31.7l3.4-0.6c-0.1-0.2-0.1-0.5-0.1-0.7L82.8,31l-3.5,0.6l0.1,0.7L82.9,31.7z"/>
<path class="st2" d="M87.1,38.4l2.2-2.6c-0.2-0.1-0.4-0.3-0.6-0.5L86.6,38l-6.8,8.1l0.6,0.5L87.1,38.4z"/>
<path class="st2" d="M82.8,27.7l3.4,0.6c0-0.2,0.1-0.5,0.1-0.7L82.9,27l-3.5-0.6l-0.1,0.7L82.8,27.7z"/>
<path class="st2" d="M88.2,39.2l-1.8,3.1l0.6,0.4l1.8-3.1C88.6,39.4,88.4,39.3,88.2,39.2"/>
<path class="st2" d="M91.3,44.2l0.7,0.1l0.6-3.6c-0.2,0-0.5-0.1-0.7-0.1L91.3,44.2z"/>
<g>
	<path class="st0" d="M63.7,29.2v2.1h-4v4h-2.1v-4h-4v-2.1h4v-4h2.1v4H63.7z"/>
</g>
</svg>
